<svg version="1.1" id="Layer_1" xmlns="http://www.w3.org/2000/svg" xmlns:xlink="http://www.w3.org/1999/xlink" x="0px" y="0px" viewBox="0 0 24 24" style="enable-background:new 0 0 24 24;" xml:space="preserve">
<g>
	<g>
		<path fill="white" d="M17.7,8.2c-0.1-0.1-0.3-0.2-0.4-0.2c0,0-0.1,0-0.1,0l-4.7,1.2l2-5.5c0-0.1,0.1-0.2,0.1-0.2
			c0-0.1-0.1-0.3-0.2-0.4C14.3,3,14.2,3,14,3h-3.9C9.9,3,9.8,3,9.7,3.1C9.6,3.2,9.6,3.3,9.5,3.4l-2.4,9.9c0,0.2,0,0.3,0.2,0.5
			c0.1,0.1,0.2,0.1,0.4,0.1c0.1,0,0.1,0,0.1,0l4.9-1.2l-2.4,9.7c0,0.1,0,0.2,0.1,0.4c0.1,0.1,0.2,0.2,0.3,0.2c0.1,0,0.1,0,0.2,0
			c0.2,0,0.4-0.1,0.5-0.3l6.5-13.9C17.9,8.6,17.9,8.4,17.7,8.2z"></path>
	</g>
</g>
</svg>