<svg version="1.1" id="Layer_1" xmlns="http://www.w3.org/2000/svg" xmlns:xlink="http://www.w3.org/1999/xlink" x="0px" y="0px" viewBox="0 0 24 24" style="enable-background:new 0 0 24 24;" xml:space="preserve">
<g>
	<g>
		<path fill="white" d="M22,19.1L17.9,15c1-1.4,1.5-3,1.5-4.8c0-1.1-0.2-2.2-0.7-3.3c-0.4-1-1-1.9-1.8-2.7c-0.8-0.8-1.7-1.4-2.7-1.8
			c-1-0.4-2.1-0.7-3.3-0.7C9.8,1.8,8.7,2,7.7,2.4c-1,0.4-1.9,1-2.7,1.8C4.2,5,3.6,5.9,3.2,6.9C2.7,8,2.5,9,2.5,10.2
			c0,1.1,0.2,2.2,0.7,3.3c0.4,1,1,1.9,1.8,2.7c0.8,0.8,1.7,1.4,2.7,1.8c1,0.4,2.1,0.7,3.3,0.7c1.8,0,3.4-0.5,4.8-1.5l4.1,4.1
			c0.3,0.3,0.6,0.5,1.1,0.5c0.4,0,0.8-0.2,1.1-0.5c0.3-0.3,0.5-0.7,0.5-1.1C22.4,19.7,22.3,19.4,22,19.1z M14.7,14
			c-1.1,1.1-2.3,1.6-3.8,1.6c-1.5,0-2.7-0.5-3.8-1.6c-1.1-1.1-1.6-2.3-1.6-3.8c0-1.5,0.5-2.7,1.6-3.8c1.1-1.1,2.3-1.6,3.8-1.6
			c1.5,0,2.7,0.5,3.8,1.6c1.1,1.1,1.6,2.3,1.6,3.8C16.3,11.7,15.8,12.9,14.7,14z"></path>
	</g>
</g>
</svg>